<svg xmlns="http://www.w3.org/2000/svg" width="24" height="24" viewBox="0 0 24 24" fill="none">
  <path d="M2.20552 4.90245C3.07825 3.91796 3.9481 2.98337 4.9971 2.23598C6.12996 1.42884 7.36085 0.828329 8.69558 0.436783C8.88991 0.379778 9.07387 0.287446 9.30043 0.190338C9.52575 0.174893 9.71919 0.213396 9.89982 0.180838C10.9463 -0.00775888 11.9861 -0.0468902 13.0534 0.0543272C14.6271 0.203547 16.1073 0.626949 17.5023 1.33655C19.137 2.16805 20.4994 3.34699 21.594 4.81676C22.6233 6.19894 23.3377 7.73741 23.7126 9.42386C23.9925 10.6834 24.0532 11.9454 23.9198 13.2411C23.7374 15.0119 23.1426 16.6273 22.291 18.1548C21.5583 19.469 20.5351 20.5519 19.3494 21.4776C19.1108 21.664 18.8629 21.8384 18.591 22.0477C18.3394 22.2081 18.1162 22.3392 17.838 22.5062C17.6911 22.6005 17.5992 22.659 17.5073 22.7176C16.7857 22.9849 16.0721 23.2768 15.3408 23.5142C13.9417 23.9686 12.4963 24.0451 10.9853 23.9796C10.3165 23.8997 9.698 23.821 9.08488 23.712C8.87263 23.6743 8.67731 23.55 8.46825 23.4844C6.91582 22.9971 5.50497 22.2389 4.27607 21.1795C3.66622 20.6538 3.13033 20.0382 2.58998 19.4371C2.07703 18.8666 1.66722 18.2144 1.30297 17.5422C0.749488 16.5207 0.41369 15.4191 0.202951 14.1992C0.175744 14.0623 0.153536 14.0036 0.131327 13.9448C0.120218 13.8261 0.109108 13.7074 0.091828 13.5091C0.0642053 13.3356 0.0427499 13.2418 0.0212945 13.1479C-0.0445295 11.9403 0.0484244 10.7466 0.215146 9.54676C0.414281 8.11355 1.01662 6.8623 1.73427 5.64474C1.87635 5.40368 2.03893 5.17471 2.20552 4.90245ZM1.90252 17.4429C3.14761 19.6744 4.92031 21.3443 7.23774 22.4239C8.78992 23.1469 10.4344 23.4819 12.1412 23.4556C13.9654 23.4275 15.6908 22.9923 17.3156 22.1363C19.4422 21.0159 21.0518 19.3889 22.176 17.2793C22.8225 16.066 23.21 14.765 23.3718 13.3968C23.6246 11.2598 23.3309 9.2067 22.4299 7.24937C21.7237 5.71523 20.7317 4.39929 19.4458 3.29297C18.4298 2.41887 17.2988 1.75554 16.0569 1.27737C14.1417 0.539965 12.1637 0.357955 10.1395 0.674056C8.87512 0.871493 7.6713 1.27415 6.55642 1.89276C4.71925 2.91214 3.23537 4.31602 2.15129 6.12849C1.25181 7.63235 0.714677 9.25816 0.575106 11.001C0.39573 13.241 0.81427 15.3714 1.90252 17.4429Z" fill="white"/>
  <path d="M17.137 16.5595C17.152 16.5095 17.167 16.4596 17.1992 16.3468C17.2275 16.2242 17.2386 16.1644 17.2497 16.1046C17.2704 15.9838 17.2912 15.863 17.3227 15.6715C17.3433 15.5412 17.3531 15.4817 17.363 15.4222C17.3838 15.3015 17.4047 15.1807 17.437 14.9836C17.4577 14.8135 17.4671 14.7198 17.4764 14.6261C17.5001 14.3939 17.5237 14.1616 17.5554 13.8462C17.5721 13.6338 17.5809 13.5045 17.5897 13.3751C17.6163 13.0607 17.6428 12.7463 17.6713 12.4096C19.1919 12.4096 20.6733 12.4096 22.2186 12.4096C22.1291 14.7072 21.3746 16.6973 19.9607 18.4676C19.2386 18.1905 18.5552 17.9297 17.8731 17.6658C17.5795 17.5522 17.2885 17.4322 16.9944 17.254C17.0031 17.1334 17.0139 17.0739 17.0246 17.0145C17.0433 16.9654 17.0619 16.9162 17.0933 16.8025C17.1164 16.6785 17.1267 16.619 17.137 16.5595Z" fill="white"/>
  <path d="M17.5185 9.96814C17.5122 9.80856 17.5059 9.64898 17.4902 9.40848C17.459 9.23661 17.4372 9.14566 17.4154 9.05472C17.3689 8.70625 17.3225 8.35778 17.2637 7.93423C17.2302 7.80279 17.209 7.74641 17.1879 7.69004C17.1243 7.34021 17.0606 6.99039 16.9971 6.64078C17.981 6.26477 18.9449 5.89642 19.9594 5.50873C21.3284 7.25578 22.1326 9.22042 22.2156 11.4639C21.8297 11.5985 18.4745 11.6367 17.6606 11.512C17.6452 11.2279 17.6291 10.9315 17.6039 10.5443C17.5694 10.2917 17.544 10.1299 17.5185 9.96814Z" fill="white"/>
  <path d="M6.67407 16.9573C6.77511 17.2669 6.69842 17.4012 6.4144 17.4973C5.55822 17.7871 4.71468 18.1142 3.7829 18.4575C2.35073 16.7623 1.64993 14.7269 1.49902 12.4725C1.93645 12.3532 5.46678 12.3333 6.08643 12.4472C6.14327 13.9433 6.27488 15.4456 6.67407 16.9573Z" fill="white"/>
  <path d="M6.25033 9.27313C6.18594 10.0552 6.12384 10.7862 6.05949 11.5437C4.5386 11.5437 3.04999 11.5437 1.49951 11.5437C1.62499 9.25774 2.38571 7.26318 3.77097 5.50781C4.77804 5.89489 5.72601 6.25926 6.71768 6.64042C6.56509 7.48751 6.40886 8.35479 6.25033 9.27313Z" fill="white"/>
  <path d="M13.2033 16.8476C12.9238 16.8203 12.6443 16.793 12.2923 16.7586C12.2638 15.312 12.2842 13.8716 12.2777 12.4024C13.812 12.4024 15.2788 12.4024 16.743 12.4024C16.9495 13.0877 16.6897 15.2549 16.1365 17.1282C16.0352 17.1844 15.9839 17.1914 15.9326 17.1984C15.1718 17.0919 14.4111 16.9854 13.5705 16.8656C13.3948 16.8508 13.299 16.8492 13.2033 16.8476Z" fill="white"/>
  <path d="M7.39182 16.4535C7.07154 15.1005 6.89312 13.7814 6.91987 12.4066C8.44687 12.4066 9.93053 12.4066 11.4466 12.4066C11.4466 13.8647 11.4466 15.2907 11.4466 16.7236C10.1475 16.8657 8.87799 17.0044 7.57258 17.1472C7.51501 16.9311 7.45778 16.7163 7.39182 16.4535Z" fill="white"/>
  <path d="M12.2781 9.62402C12.2781 8.81213 12.2781 8.05708 12.2781 7.26294C13.5727 7.11629 14.836 6.97318 16.1515 6.82416C16.6071 8.34831 16.8055 9.90503 16.8487 11.5338C15.3165 11.5338 13.8338 11.5338 12.2781 11.5338C12.2781 10.9152 12.2781 10.298 12.2781 9.62402Z" fill="white"/>
  <path d="M11.4791 9.85089C11.4791 10.4342 11.4791 10.9608 11.4791 11.4759C11.0347 11.5952 7.61185 11.6207 6.90751 11.5148C6.9041 9.92989 7.13934 8.37856 7.57699 6.82861C8.87305 6.97212 10.1395 7.11236 11.4791 7.26069C11.4791 8.10502 11.4791 8.94959 11.4791 9.85089Z" fill="white"/>
  <path d="M11.4747 21.6571C11.4747 21.88 11.4747 22.0489 11.4747 22.2825C11.2923 22.2556 11.1457 22.2577 11.017 22.2108C10.4908 22.0194 10.0617 21.684 9.67653 21.2828C8.93571 20.5112 8.17005 19.1402 7.87891 18.0432C8.49855 17.7403 10.6354 17.5002 11.4747 17.6586C11.4747 18.9646 11.4747 20.2837 11.4747 21.6571Z" fill="white"/>
  <path d="M8.4269 6.15227C8.24841 6.10375 8.06993 6.05523 7.89282 6.00709C8.28781 4.19786 9.99237 1.74429 11.4719 1.70435C11.4801 3.25498 11.4747 4.80381 11.4753 6.40581C11.2082 6.40581 11.006 6.40581 10.7212 6.39758C10.5079 6.38519 10.3773 6.38102 10.2466 6.37685C10.0154 6.35364 9.78424 6.33044 9.47894 6.29499C9.34415 6.28081 9.28346 6.27889 9.22277 6.27697C9.06592 6.25139 8.90906 6.22582 8.68037 6.1859C8.54798 6.16511 8.48744 6.15869 8.4269 6.15227Z" fill="white"/>
  <path d="M12.3428 17.6364C13.5585 17.5568 14.7096 17.7266 15.9179 17.9757C15.3659 19.4704 14.7214 20.8372 13.4544 21.8049C13.1283 22.054 12.7764 22.2827 12.303 22.2646C12.303 20.7235 12.303 19.1985 12.3428 17.6364Z" fill="white"/>
  <path d="M12.8631 6.43656C12.6954 6.4226 12.5277 6.40864 12.3638 6.39499C12.2508 5.98892 12.223 2.3737 12.3281 1.69769C12.7204 1.70644 13.0421 1.89726 13.3549 2.10279C13.9173 2.47244 14.3398 2.97819 14.7129 3.52931C15.2138 4.26913 15.586 5.07212 15.849 5.96666C15.7814 6.0462 15.7444 6.0725 15.7074 6.0988C15.3598 6.14409 15.0122 6.18938 14.583 6.2428C14.4107 6.27632 14.32 6.3017 14.2293 6.32709C13.9966 6.33615 13.764 6.34523 13.4419 6.35963C13.1894 6.38883 13.0262 6.4127 12.8631 6.43656Z" fill="white"/>
  <path d="M18.0791 20.3007C17.128 20.9628 16.1685 21.5202 15.0893 21.8449C14.9522 21.8861 14.8114 21.9152 14.6443 21.9148C15.5862 20.8164 16.208 19.5568 16.7083 18.1787C17.6283 18.377 18.4761 18.7 19.3745 19.1652C18.9246 19.5638 18.5198 19.9226 18.0791 20.3007Z" fill="white"/>
  <path d="M9.13697 2.1188C8.28769 2.98295 7.7481 4.03849 7.27553 5.13494C7.18711 5.34009 7.10891 5.54964 7.01285 5.79006C6.08748 5.59153 5.23205 5.29599 4.38892 4.81834C5.72583 3.45763 7.24856 2.52778 9.07634 2.0426C9.12706 2.07892 9.13201 2.09886 9.13697 2.1188Z" fill="white"/>
  <path d="M19.132 4.94634C18.3493 5.33893 17.5663 5.59538 16.7541 5.79384C16.4522 5.1458 16.1939 4.50092 15.8592 3.89851C15.5241 3.29534 15.1126 2.7346 14.7046 2.10922C15.1511 2.09777 15.523 2.27756 15.8828 2.42865C17.0781 2.93051 18.1388 3.64897 19.0709 4.54998C19.1565 4.63279 19.4422 4.7256 19.132 4.94634Z" fill="white"/>
  <path d="M6.02794 20.5569C5.46994 20.1088 4.94606 19.6832 4.34204 19.1925C5.2105 18.6661 6.07781 18.4501 6.98894 18.1531C7.49702 19.4937 8.11267 20.7699 9.04267 21.8829C7.93294 21.6797 6.97441 21.1822 6.02794 20.5569Z" fill="white"/>
</svg>