<svg xmlns="http://www.w3.org/2000/svg" width="24" height="24" viewBox="0 0 24 24" fill="none">
  <path d="M2.20552 4.90245C3.07825 3.91796 3.9481 2.98337 4.9971 2.23598C6.12996 1.42884 7.36085 0.828329 8.69558 0.436783C8.88991 0.379778 9.07387 0.287446 9.30043 0.190338C9.52575 0.174893 9.71919 0.213396 9.89982 0.180838C10.9463 -0.00775888 11.9861 -0.0468902 13.0534 0.0543272C14.6271 0.203547 16.1073 0.626949 17.5023 1.33655C19.137 2.16805 20.4994 3.34699 21.594 4.81676C22.6233 6.19894 23.3377 7.73741 23.7126 9.42386C23.9925 10.6834 24.0532 11.9454 23.9198 13.2411C23.7374 15.0119 23.1426 16.6273 22.291 18.1548C21.5583 19.469 20.5351 20.5519 19.3494 21.4776C19.1108 21.664 18.8629 21.8384 18.591 22.0477C18.3394 22.2081 18.1162 22.3392 17.838 22.5062C17.6911 22.6005 17.5992 22.659 17.5073 22.7176C16.7857 22.9849 16.0721 23.2768 15.3408 23.5142C13.9417 23.9686 12.4963 24.0451 10.9853 23.9796C10.3165 23.8997 9.698 23.821 9.08488 23.712C8.87263 23.6743 8.67731 23.55 8.46825 23.4844C6.91582 22.9971 5.50497 22.2389 4.27607 21.1795C3.66622 20.6538 3.13033 20.0382 2.58998 19.4371C2.07703 18.8666 1.66722 18.2144 1.30297 17.5422C0.749488 16.5207 0.41369 15.4191 0.202951 14.1992C0.175744 14.0623 0.153536 14.0036 0.131327 13.9448C0.120218 13.8261 0.109108 13.7074 0.091828 13.5091C0.0642053 13.3356 0.0427499 13.2418 0.0212945 13.1479C-0.0445295 11.9403 0.0484244 10.7466 0.215146 9.54676C0.414281 8.11355 1.01662 6.8623 1.73427 5.64474C1.87635 5.40368 2.03893 5.17471 2.20552 4.90245ZM1.90252 17.4429C3.14761 19.6744 4.92031 21.3443 7.23774 22.4239C8.78992 23.1469 10.4344 23.4819 12.1412 23.4556C13.9654 23.4275 15.6908 22.9923 17.3156 22.1363C19.4422 21.0159 21.0518 19.3889 22.176 17.2793C22.8225 16.066 23.21 14.765 23.3718 13.3968C23.6246 11.2598 23.3309 9.2067 22.4299 7.24937C21.7237 5.71523 20.7317 4.39929 19.4458 3.29297C18.4298 2.41887 17.2988 1.75554 16.0569 1.27737C14.1417 0.539965 12.1637 0.357955 10.1395 0.674056C8.87512 0.871493 7.6713 1.27415 6.55642 1.89276C4.71925 2.91214 3.23537 4.31602 2.15129 6.12849C1.25181 7.63235 0.714677 9.25816 0.575106 11.001C0.39573 13.241 0.81427 15.3714 1.90252 17.4429Z" fill="#2740CD"/>
  <path d="M17.137 16.5596C17.152 16.5096 17.167 16.4596 17.1992 16.3468C17.2275 16.2242 17.2386 16.1644 17.2497 16.1047C17.2704 15.9839 17.2912 15.8631 17.3227 15.6715C17.3433 15.5412 17.3531 15.4818 17.363 15.4223C17.3838 15.3015 17.4047 15.1807 17.437 14.9836C17.4577 14.8136 17.4671 14.7199 17.4764 14.6262C17.5001 14.3939 17.5237 14.1617 17.5554 13.8463C17.5721 13.6338 17.5809 13.5045 17.5897 13.3752C17.6163 13.0608 17.6428 12.7464 17.6713 12.4097C19.1919 12.4097 20.6733 12.4097 22.2186 12.4097C22.1291 14.7072 21.3746 16.6973 19.9607 18.4676C19.2386 18.1906 18.5552 17.9298 17.8731 17.6658C17.5795 17.5523 17.2885 17.4322 16.9944 17.254C17.0031 17.1335 17.0139 17.074 17.0246 17.0145C17.0433 16.9654 17.0619 16.9163 17.0933 16.8026C17.1164 16.6785 17.1267 16.6191 17.137 16.5596Z" fill="#2740CD"/>
  <path d="M17.5185 9.9682C17.5122 9.80862 17.5059 9.64904 17.4902 9.40854C17.459 9.23667 17.4372 9.14572 17.4154 9.05478C17.3689 8.70631 17.3225 8.35784 17.2637 7.9343C17.2302 7.80285 17.209 7.74647 17.1879 7.6901C17.1243 7.34027 17.0606 6.99045 16.9971 6.64084C17.981 6.26483 18.9449 5.89648 19.9594 5.50879C21.3284 7.25584 22.1326 9.22048 22.2156 11.4639C21.8297 11.5985 18.4745 11.6367 17.6606 11.5121C17.6452 11.2279 17.6291 10.9315 17.6039 10.5444C17.5694 10.2918 17.544 10.13 17.5185 9.9682Z" fill="#2740CD"/>
  <path d="M6.67407 16.9573C6.77511 17.2669 6.69842 17.4012 6.4144 17.4973C5.55822 17.7871 4.71468 18.1142 3.7829 18.4575C2.35073 16.7623 1.64993 14.7269 1.49902 12.4725C1.93645 12.3532 5.46678 12.3333 6.08643 12.4472C6.14327 13.9433 6.27488 15.4456 6.67407 16.9573Z" fill="#2740CD"/>
  <path d="M6.25033 9.27313C6.18594 10.0552 6.12384 10.7862 6.05949 11.5437C4.5386 11.5437 3.04999 11.5437 1.49951 11.5437C1.62499 9.25774 2.38571 7.26318 3.77097 5.50781C4.77804 5.89489 5.72601 6.25926 6.71768 6.64042C6.56509 7.48751 6.40886 8.35479 6.25033 9.27313Z" fill="#2740CD"/>
  <path d="M13.2033 16.8475C12.9238 16.8202 12.6443 16.7929 12.2923 16.7585C12.2638 15.3119 12.2842 13.8716 12.2777 12.4023C13.812 12.4023 15.2788 12.4023 16.743 12.4023C16.9495 13.0876 16.6897 15.2549 16.1365 17.1282C16.0352 17.1843 15.9839 17.1913 15.9326 17.1983C15.1718 17.0918 14.4111 16.9853 13.5705 16.8656C13.3948 16.8507 13.299 16.8491 13.2033 16.8475Z" fill="#2740CD"/>
  <path d="M7.39182 16.4536C7.07154 15.1006 6.89312 13.7815 6.91987 12.4067C8.44687 12.4067 9.93053 12.4067 11.4466 12.4067C11.4466 13.8648 11.4466 15.2909 11.4466 16.7237C10.1475 16.8658 8.87799 17.0046 7.57258 17.1473C7.51501 16.9312 7.45778 16.7164 7.39182 16.4536Z" fill="#2740CD"/>
  <path d="M12.2781 9.62408C12.2781 8.81219 12.2781 8.05714 12.2781 7.263C13.5727 7.11635 14.836 6.97324 16.1515 6.82422C16.6071 8.34837 16.8055 9.90509 16.8487 11.5339C15.3165 11.5339 13.8338 11.5339 12.2781 11.5339C12.2781 10.9153 12.2781 10.2981 12.2781 9.62408Z" fill="#2740CD"/>
  <path d="M11.4791 9.85089C11.4791 10.4342 11.4791 10.9608 11.4791 11.4759C11.0347 11.5952 7.61185 11.6207 6.90751 11.5148C6.9041 9.92989 7.13934 8.37856 7.57699 6.82861C8.87305 6.97212 10.1395 7.11236 11.4791 7.26069C11.4791 8.10502 11.4791 8.94959 11.4791 9.85089Z" fill="#2740CD"/>
  <path d="M11.4747 21.6571C11.4747 21.8801 11.4747 22.0489 11.4747 22.2826C11.2923 22.2557 11.1457 22.2578 11.017 22.2109C10.4908 22.0194 10.0617 21.6841 9.67653 21.2829C8.93571 20.5113 8.17005 19.1403 7.87891 18.0433C8.49855 17.7404 10.6354 17.5003 11.4747 17.6586C11.4747 18.9646 11.4747 20.2838 11.4747 21.6571Z" fill="#2740CD"/>
  <path d="M8.4269 6.15251C8.24841 6.10399 8.06993 6.05548 7.89282 6.00733C8.28781 4.19811 9.99237 1.74453 11.4719 1.70459C11.4801 3.25522 11.4747 4.80405 11.4753 6.40605C11.2082 6.40605 11.006 6.40605 10.7212 6.39783C10.5079 6.38543 10.3773 6.38126 10.2466 6.37709C10.0154 6.35389 9.78424 6.33068 9.47894 6.29523C9.34415 6.28106 9.28346 6.27914 9.22277 6.27721C9.06592 6.25164 8.90906 6.22607 8.68037 6.18614C8.54798 6.16536 8.48744 6.15893 8.4269 6.15251Z" fill="#2740CD"/>
  <path d="M12.3428 17.6365C13.5585 17.5569 14.7096 17.7267 15.9179 17.9759C15.3659 19.4705 14.7214 20.8373 13.4544 21.805C13.1283 22.0541 12.7764 22.2828 12.303 22.2648C12.303 20.7236 12.303 19.1987 12.3428 17.6365Z" fill="#2740CD"/>
  <path d="M12.8631 6.43662C12.6954 6.42266 12.5277 6.4087 12.3638 6.39505C12.2508 5.98898 12.223 2.37377 12.3281 1.69775C12.7204 1.7065 13.0421 1.89733 13.3549 2.10285C13.9173 2.47251 14.3398 2.97825 14.7129 3.52937C15.2138 4.26919 15.586 5.07218 15.849 5.96673C15.7814 6.04627 15.7444 6.07257 15.7074 6.09887C15.3598 6.14415 15.0122 6.18945 14.583 6.24287C14.4107 6.27638 14.32 6.30176 14.2293 6.32715C13.9966 6.33622 13.764 6.34529 13.4419 6.35969C13.1894 6.38889 13.0262 6.41276 12.8631 6.43662Z" fill="#2740CD"/>
  <path d="M18.0791 20.3007C17.128 20.9628 16.1685 21.5202 15.0893 21.8449C14.9522 21.8861 14.8114 21.9152 14.6443 21.9148C15.5862 20.8164 16.208 19.5568 16.7083 18.1787C17.6283 18.377 18.4761 18.7 19.3745 19.1652C18.9246 19.5638 18.5198 19.9226 18.0791 20.3007Z" fill="#2740CD"/>
  <path d="M9.13697 2.11868C8.28769 2.98283 7.7481 4.03837 7.27553 5.13482C7.18711 5.33997 7.10891 5.54952 7.01285 5.78993C6.08748 5.59141 5.23205 5.29587 4.38892 4.81822C5.72583 3.4575 7.24856 2.52766 9.07634 2.04248C9.12706 2.07879 9.13201 2.09874 9.13697 2.11868Z" fill="#2740CD"/>
  <path d="M19.132 4.94652C18.3493 5.33911 17.5663 5.59556 16.7541 5.79402C16.4522 5.14598 16.1939 4.5011 15.8592 3.89869C15.5241 3.29552 15.1126 2.73478 14.7046 2.10941C15.1511 2.09795 15.523 2.27774 15.8828 2.42884C17.0781 2.93069 18.1388 3.64915 19.0709 4.55016C19.1565 4.63297 19.4422 4.72578 19.132 4.94652Z" fill="#2740CD"/>
  <path d="M6.02794 20.5567C5.46994 20.1085 4.94606 19.6829 4.34204 19.1922C5.2105 18.6659 6.07781 18.4498 6.98894 18.1528C7.49702 19.4934 8.11267 20.7696 9.04267 21.8827C7.93294 21.6795 6.97441 21.1819 6.02794 20.5567Z" fill="#2740CD"/>
</svg>