<svg width="61" height="21" viewBox="0 0 61 21" fill="none" xmlns="http://www.w3.org/2000/svg">
<g id="Text">
<path id="Vector" d="M34.1008 9.73351C33.5882 10.2681 33.0886 10.7704 32.4978 11.3643C32.934 11.3855 33.2254 11.3996 33.6405 11.4198C33.2917 11.8162 33.0024 12.1448 32.6916 12.498C33.8455 14.96 34.9984 17.4197 36.1547 19.8867C35.6836 20.0213 30.4613 20.0692 29.0622 19.9628C28.7076 19.0968 28.3456 18.213 27.9435 17.2311C27.1341 18.1661 26.3827 19.0341 25.6193 19.9367C25.4374 19.9793 25.2675 19.9942 25.0976 19.9943C21.1246 19.9951 17.1517 19.9942 13.1787 19.9937C13.0288 19.9937 12.8789 19.9937 12.6507 19.9937C12.5553 18.7565 12.4619 17.5448 12.3648 16.2867C11.7659 16.2867 11.2203 16.2867 10.6748 16.2867C10.1639 16.2867 9.65178 16.3094 9.14278 16.279C8.77216 16.2569 8.56669 16.3716 8.3962 16.7192C7.88017 17.7715 7.31868 18.8015 6.7109 19.8934C6.11881 19.956 5.59077 19.9723 5.06268 19.9736C3.60847 19.9771 2.1542 19.9792 0.700056 19.9687C0.494568 19.9672 0.229828 20.0799 0.105469 19.7849C0.852514 18.4557 1.59956 17.1264 2.35865 15.7575C3.16647 14.3226 3.96225 12.9274 4.77896 11.4954C4.293 11.2935 3.83216 11.474 3.31936 11.3428C5.38147 7.67013 7.43262 4.01699 9.47302 0.382996C11.6808 0.382996 13.8373 0.382996 16.0769 0.382996C16.4281 4.03971 16.7783 7.68508 17.1331 11.3778C17.6214 11.3778 18.0693 11.3778 18.5845 11.3778C18.8898 13.9229 19.0551 16.4403 19.3652 19.0679C21.2347 17.0779 23.0195 15.1779 24.8549 13.2275C25.0828 12.9897 25.2602 12.8024 25.4515 12.6004C25.2991 12.2728 25.1482 11.9759 25.0221 11.6688C24.9146 11.4071 24.7339 11.3523 24.4851 11.4217C23.8341 11.5172 23.4396 11.2393 23.2858 10.6034C23.2688 10.5331 23.2231 10.4699 23.1565 10.3361C22.9107 9.83629 22.6991 9.40368 22.4875 8.97106C22.4676 8.9101 22.4477 8.84914 22.4064 8.76379C21.9603 7.78986 21.535 6.8406 21.1115 5.89054C21.028 5.70319 20.9515 5.51274 20.8709 5.32163C21.2966 5.18259 26.5824 5.12849 27.8349 5.24718C28.1833 6.05821 28.5431 6.8956 28.9367 7.81187C29.1649 7.5973 29.3497 7.44752 29.5059 7.27215C30.0295 6.68414 30.5481 6.09143 31.0573 5.49089C31.2305 5.28661 31.4228 5.20038 31.6937 5.20152C33.7579 5.21024 35.8222 5.20598 37.8864 5.20742C37.9796 5.20748 38.0728 5.22349 38.1852 5.23384C38.1952 5.49226 37.9893 5.5972 37.8583 5.7366C36.6136 7.06148 35.3628 8.38052 34.1008 9.73351ZM10.7936 7.32883C10.762 7.33716 10.7092 7.33698 10.702 7.35504C10.1704 8.68324 9.64236 10.0129 9.1068 11.3607C9.183 11.3742 9.25492 11.3894 9.32756 11.3994C9.74801 11.4574 10.2331 11.2255 10.5676 11.6773C10.5831 11.6983 10.6397 11.6933 10.6771 11.693C11.1311 11.6897 11.5851 11.6892 12.0388 11.6755C12.0938 11.6738 12.1466 11.5994 12.2427 11.5268C11.7604 11.2307 11.2365 11.5356 10.7989 11.3111C10.7989 9.99485 10.7989 8.69032 10.7936 7.32883Z" fill="white"/>
<path id="Vector_2" d="M51.1862 5.40572C52.1442 5.20526 53.0657 4.9527 54.002 4.87307C56.0452 4.69931 57.9975 5.10311 59.8337 6.03081C59.8988 6.06372 59.9545 6.11539 60.0486 6.18265C59.7469 7.48915 59.4451 8.7962 59.1468 10.1467C58.521 10.2086 57.8918 10.2271 57.1986 10.1985C56.8352 9.78179 56.4518 9.5466 55.99 9.43707C55.2512 9.03472 54.4575 8.92458 53.6303 8.99503C53.555 9.00145 53.463 8.99221 53.4088 9.03157C53.249 9.14763 53.0332 9.25723 52.9708 9.41983C52.8849 9.6433 53.0919 9.81203 53.2915 9.88542C53.6802 10.0283 54.0741 10.1731 54.4784 10.2538C55.4514 10.448 56.3795 10.7369 57.2449 11.2417C57.4835 11.3809 57.8263 11.402 58.1146 11.3817C58.5834 11.3488 58.8912 11.5339 59.1816 11.8803C59.9304 12.7738 60.061 13.7953 59.8084 14.8755C59.5914 15.8033 59.2748 16.7041 58.6224 17.4372C58.3367 17.7583 58.0358 18.0657 57.6875 18.4194C57.5618 18.5176 57.4905 18.5757 57.4192 18.6338C56.7442 19.1735 55.9555 19.4939 55.1442 19.7395C51.9189 20.7161 48.7923 20.4586 45.7851 18.9777C45.7404 18.5292 46.4146 15.3816 46.7612 14.3698C47.326 14.3698 47.9044 14.3698 48.4775 14.3698C49.4654 16.0593 52.3799 16.7822 53.4137 15.5798C53.3394 15.315 53.1105 15.21 52.8761 15.149C52.3822 15.0205 51.8795 14.926 51.3832 14.8065C50.9604 14.7047 50.5337 14.6103 50.1223 14.4723C49.0994 14.1292 48.3764 13.4391 47.8834 12.411C47.8361 12.2891 47.8084 12.2338 47.7808 12.1785C47.7781 12.127 47.7754 12.0755 47.7632 11.9525C47.7258 11.7904 47.6978 11.6999 47.6699 11.6093C47.6743 11.4324 47.5607 11.3988 47.4168 11.3986C47.1773 11.3983 46.9377 11.393 46.6981 11.3955C46.5137 11.3975 46.4279 11.312 46.4435 11.0405C46.4616 10.7506 46.4738 10.5488 46.4861 10.347C46.503 10.2982 46.5199 10.2493 46.5558 10.1373C46.5841 10.0135 46.5933 9.95282 46.6025 9.89216C46.8472 9.32378 47.0805 8.75005 47.3439 8.19045C47.4185 8.03188 47.5764 7.91029 47.7037 7.77916C48.0311 7.44205 48.3627 7.1091 48.726 6.71678C48.7995 6.64244 48.8397 6.6258 48.8798 6.60916C49.6387 6.21678 50.3976 5.82441 51.1862 5.40572Z" fill="white"/>
<path id="Vector_3" d="M43.2579 19.2939C43.2037 19.5523 43.1424 19.7664 43.0763 19.9977C41.0202 19.9977 38.9819 19.9977 36.8645 19.9977C37.1944 18.1561 37.6733 16.38 38.0105 14.5287C38.3017 13.5677 38.4515 12.6244 38.67 11.6212C38.1842 11.6212 37.7748 11.6212 37.3232 11.6212C37.7073 9.89995 38.077 8.24337 38.4595 6.52946C40.5409 6.53019 42.5898 6.52383 44.7135 6.53349C44.3389 8.26818 43.9846 9.90852 43.614 11.6242C44.0895 11.6242 44.4972 11.6242 44.9847 11.6242C44.8859 12.0838 44.8071 12.4664 44.7211 12.8473C44.2553 14.911 43.7879 16.9742 43.3199 19.0373C43.3035 19.1096 43.2742 19.1789 43.2579 19.2939Z" fill="white"/>
<path id="Vector_4" d="M46.2879 0.570036C46.1472 1.13878 46.0028 1.70663 45.8667 2.27647C45.6657 3.11858 45.4705 3.96209 45.2659 4.83475C43.1172 4.83475 40.9859 4.83475 38.7717 4.83475C39.1297 3.2462 39.4777 1.70177 39.8395 0.0957088C41.9532 0.086654 44.0489 0.0776789 46.2103 0.0891528C46.28 0.26308 46.284 0.416558 46.2879 0.570036Z" fill="white"/>
</g>
</svg>
