<svg xmlns="http://www.w3.org/2000/svg" width="61" height="21" viewBox="0 0 61 21" fill="none">
  <path d="M34.1008 9.73333C33.5882 10.2679 33.0886 10.7702 32.4978 11.3641C32.934 11.3853 33.2254 11.3994 33.6405 11.4196C33.2917 11.816 33.0024 12.1446 32.6916 12.4978C33.8455 14.9598 34.9984 17.4195 36.1547 19.8865C35.6836 20.0211 30.4613 20.069 29.0622 19.9627C28.7076 19.0966 28.3456 18.2128 27.9435 17.2309C27.1341 18.1659 26.3827 19.0339 25.6193 19.9365C25.4374 19.9791 25.2675 19.994 25.0976 19.9941C21.1246 19.9949 17.1517 19.9941 13.1787 19.9936C13.0288 19.9935 12.8789 19.9936 12.6507 19.9936C12.5553 18.7563 12.4619 17.5446 12.3648 16.2865C11.7659 16.2865 11.2203 16.2865 10.6748 16.2865C10.1639 16.2865 9.65178 16.3092 9.14278 16.2788C8.77216 16.2567 8.56669 16.3714 8.3962 16.719C7.88017 17.7713 7.31868 18.8013 6.7109 19.8932C6.11881 19.9558 5.59077 19.9721 5.06268 19.9734C3.60847 19.9769 2.1542 19.979 0.700056 19.9685C0.494568 19.967 0.229828 20.0798 0.105469 19.7847C0.852514 18.4555 1.59956 17.1263 2.35865 15.7573C3.16647 14.3224 3.96225 12.9272 4.77896 11.4952C4.293 11.2933 3.83216 11.4738 3.31936 11.3426C5.38147 7.66995 7.43262 4.01681 9.47302 0.382812C11.6808 0.382812 13.8373 0.382812 16.0769 0.382812C16.4281 4.03953 16.7783 7.68489 17.1331 11.3777C17.6214 11.3777 18.0693 11.3777 18.5845 11.3777C18.8898 13.9228 19.0551 16.4401 19.3652 19.0677C21.2347 17.0777 23.0195 15.1777 24.8549 13.2273C25.0828 12.9895 25.2602 12.8022 25.4515 12.6003C25.2991 12.2726 25.1482 11.9757 25.0221 11.6686C24.9146 11.4069 24.7339 11.3521 24.4851 11.4216C23.8341 11.517 23.4396 11.2391 23.2858 10.6032C23.2688 10.533 23.2231 10.4697 23.1565 10.336C22.9107 9.83611 22.6991 9.40349 22.4875 8.97088C22.4676 8.90992 22.4477 8.84896 22.4064 8.76361C21.9603 7.78968 21.535 6.84042 21.1115 5.89035C21.028 5.70301 20.9515 5.51255 20.8709 5.32145C21.2966 5.1824 26.5824 5.1283 27.8349 5.247C28.1833 6.05802 28.5431 6.89542 28.9367 7.81169C29.1649 7.59711 29.3497 7.44733 29.5059 7.27197C30.0295 6.68396 30.5481 6.09125 31.0573 5.49071C31.2305 5.28642 31.4228 5.2002 31.6937 5.20134C33.7579 5.21006 35.8222 5.2058 37.8864 5.20723C37.9796 5.2073 38.0728 5.22331 38.1852 5.23366C38.1952 5.49208 37.9893 5.59701 37.8583 5.73642C36.6136 7.0613 35.3628 8.38034 34.1008 9.73333ZM10.7936 7.32864C10.762 7.33698 10.7092 7.3368 10.702 7.35485C10.1704 8.68305 9.64236 10.0127 9.1068 11.3605C9.183 11.374 9.25492 11.3892 9.32756 11.3992C9.74801 11.4572 10.2331 11.2253 10.5676 11.6771C10.5831 11.6981 10.6397 11.6931 10.6771 11.6928C11.1311 11.6895 11.5851 11.689 12.0388 11.6753C12.0938 11.6736 12.1466 11.5992 12.2427 11.5266C11.7604 11.2305 11.2365 11.5355 10.7989 11.311C10.7989 9.99467 10.7989 8.69013 10.7936 7.32864Z" fill="#2740CD"/>
  <path d="M51.1862 5.40554C52.1442 5.20508 53.0657 4.95251 54.002 4.87289C56.0452 4.69913 57.9975 5.10293 59.8337 6.03063C59.8988 6.06353 59.9545 6.1152 60.0486 6.18247C59.7469 7.48897 59.4451 8.79601 59.1468 10.1465C58.521 10.2084 57.8918 10.2269 57.1986 10.1983C56.8352 9.78161 56.4518 9.54642 55.99 9.43689C55.2512 9.03453 54.4575 8.92439 53.6303 8.99485C53.555 9.00126 53.463 8.99202 53.4088 9.03138C53.249 9.14745 53.0332 9.25705 52.9708 9.41965C52.8849 9.64312 53.0919 9.81185 53.2915 9.88524C53.6802 10.0281 54.0741 10.1729 54.4784 10.2536C55.4514 10.4479 56.3795 10.7367 57.2449 11.2416C57.4835 11.3807 57.8263 11.4018 58.1146 11.3815C58.5834 11.3486 58.8912 11.5337 59.1816 11.8801C59.9304 12.7736 60.061 13.7951 59.8084 14.8753C59.5914 15.8031 59.2748 16.7039 58.6224 17.437C58.3367 17.7581 58.0358 18.0656 57.6875 18.4192C57.5618 18.5174 57.4905 18.5755 57.4192 18.6336C56.7442 19.1733 55.9555 19.4937 55.1442 19.7393C51.9189 20.7159 48.7923 20.4584 45.7851 18.9776C45.7404 18.529 46.4146 15.3814 46.7612 14.3696C47.326 14.3696 47.9044 14.3696 48.4775 14.3696C49.4654 16.0591 52.3799 16.782 53.4137 15.5796C53.3394 15.3149 53.1105 15.2098 52.8761 15.1488C52.3822 15.0203 51.8795 14.9259 51.3832 14.8063C50.9604 14.7045 50.5337 14.6101 50.1223 14.4721C49.0994 14.1291 48.3764 13.4389 47.8834 12.4109C47.8361 12.2889 47.8084 12.2336 47.7808 12.1783C47.7781 12.1269 47.7754 12.0754 47.7632 11.9523C47.7258 11.7902 47.6978 11.6997 47.6699 11.6091C47.6743 11.4322 47.5607 11.3987 47.4168 11.3985C47.1773 11.3981 46.9377 11.3928 46.6981 11.3954C46.5137 11.3974 46.4279 11.3118 46.4435 11.0403C46.4616 10.7504 46.4738 10.5486 46.4861 10.3468C46.503 10.298 46.5199 10.2491 46.5558 10.1371C46.5841 10.0133 46.5933 9.95264 46.6025 9.89197C46.8472 9.3236 47.0805 8.74986 47.3439 8.19026C47.4185 8.0317 47.5764 7.91011 47.7037 7.77898C48.0311 7.44186 48.3627 7.10891 48.726 6.7166C48.7995 6.64226 48.8397 6.62562 48.8798 6.60898C49.6387 6.2166 50.3976 5.82423 51.1862 5.40554Z" fill="#2740CD"/>
  <path d="M43.2579 19.2937C43.2037 19.5521 43.1424 19.7662 43.0763 19.9974C41.0202 19.9974 38.9819 19.9974 36.8645 19.9974C37.1944 18.1558 37.6733 16.3797 38.0105 14.5284C38.3017 13.5675 38.4515 12.6242 38.67 11.6209C38.1842 11.6209 37.7748 11.6209 37.3232 11.6209C37.7073 9.8997 38.077 8.24313 38.4595 6.52922C40.5409 6.52994 42.5898 6.52359 44.7135 6.53325C44.3389 8.26793 43.9846 9.90828 43.614 11.624C44.0895 11.624 44.4972 11.624 44.9847 11.624C44.8859 12.0835 44.8071 12.4661 44.7211 12.8471C44.2553 14.9107 43.7879 16.974 43.3199 19.0371C43.3035 19.1093 43.2742 19.1787 43.2579 19.2937Z" fill="#2740CD"/>
  <path d="M46.2879 0.569792C46.1472 1.13853 46.0028 1.70639 45.8667 2.27623C45.6657 3.11833 45.4705 3.96185 45.2659 4.8345C43.1172 4.8345 40.9859 4.8345 38.7717 4.8345C39.1297 3.24596 39.4777 1.70152 39.8395 0.0954647C41.9532 0.0864098 44.0489 0.0774348 46.2103 0.0889087C46.28 0.262836 46.284 0.416314 46.2879 0.569792Z" fill="#3851DD"/>
</svg>